<svg width="32" height="32" xmlns="http://www.w3.org/2000/svg"><g transform="translate(1 1)" fill="none" fill-rule="evenodd"><circle stroke="#FFF" stroke-width=".5" cx="15" cy="15" r="15.25"/><g fill="#FFF" fill-rule="nonzero"><path d="M14.78 21.908a.317.317 0 00.446 0l5.676-5.625a.31.31 0 00-.008-.442.317.317 0 00-.438 0l-5.137 5.092V7.313A.314.314 0 0015.004 7a.314.314 0 00-.316.313v13.62l-5.136-5.091a.317.317 0 00-.446-.008.31.31 0 000 .45l5.674 5.624z"/><path d="M9.329 15.75a.32.32 0 01.223.091l5.452 5.405 5.451-5.405a.317.317 0 01.446.008.31.31 0 010 .434l-5.675 5.625a.317.317 0 01-.446 0l-5.675-5.625a.31.31 0 01.001-.442.317.317 0 01.223-.091z"/><path d="M15.004 7c.174 0 .315.14.315.313v14.374a.314.314 0 01-.315.313.314.314 0 01-.316-.313V7.312c0-.172.141-.312.316-.312z"/></g></g></svg>