<svg width="124" height="60" xmlns="http://www.w3.org/2000/svg" xmlns:xlink="http://www.w3.org/1999/xlink"><defs><path id="a" d="M0 .231h35.7v40.982H0z"/></defs><g fill="none" fill-rule="evenodd"><path d="M101.276 35.815c-.484 0-.877-.366-.877-.816l.002-.03V21.132l.003-.055c.046-.41.418-.73.871-.73s.826.32.872.73l.003.055v13.837l.001.03c0 .45-.392.816-.875.816m1.638-18.01h-3.28c-2.773 0-2.936 2.232-2.936 3.672v13.206c0 1.44.163 3.672 2.937 3.672h3.279c2.77 0 2.94-2.232 2.94-3.672V21.477c0-1.44-.17-3.671-2.94-3.671m-61.703 0h7.55v2.551h-3.593v17.998h-3.957zm8.135 20.549h3.873l.369-5.461h1.868l.366 5.461h3.874l-2.065-20.55h-6.22l-2.065 20.55zm4.381-7.72l.682-10.28h.224l.68 10.28h-1.586zm11.634.525v3.866c0 .531.395.68.623.68.368 0 .623-.325.623-.68V30.25c0-.645-.113-1.348-1.586-1.348h-1.61v-2.26h1.665c1.13 0 1.531-.268 1.531-1.525v-4.088c0-.352-.255-.67-.623-.67-.228 0-.623.144-.623.67v3.354h-3.958v-2.905c0-1.44.17-3.672 2.94-3.672h3.283c2.772 0 2.94 2.232 2.94 3.672v3.288c0 2.23-1.5 2.845-2.688 2.785v.208c2.658-.062 2.688 2.052 2.688 2.79v4.135c0 1.44-.168 3.672-2.94 3.672h-3.283c-2.77 0-2.94-2.233-2.94-3.672V31.16h3.958zm7.808-13.354h9.163v20.55h-3.693v-18h-1.777v17.998h-3.693zM85.2 38.355h3.958V31.37h2.26c2.772 0 3.212-2.233 3.212-3.673v-6.219c0-1.44-.44-3.671-3.212-3.671H85.2v20.55zm3.958-9.25v-8.747h1.04c.427 0 .736.38.736 1.021v6.703c0 .645-.309 1.023-.737 1.023h-1.04zm29.33-11.299h5.147v20.55h-3.962V25.467h-.138l-2.04 12.887h-3.163l-2.036-12.887h-.142v12.887h-3.96v-20.55h5.144l2.571 14.443zm-85.721 2.088c-.048 2.083-.297 4.283-.614 5.595.113-2.264-.159-5.458-.684-7.953-.521-2.497-2-6.656-3.18-8.587-1.09 1.835-2.434 5.44-3.136 8.565-.707 3.13-.728 6.914-.728 8.048-.187-.96-.657-4.369-.523-7.798.11-2.83.774-5.734 1.138-7.072 1.385-4.465 2.954-7.316 3.248-7.768.296.452 2.273 3.963 3.297 7.656 1.02 3.696 1.225 7.23 1.182 9.314M28.313 35.84c-.614-1.154-1.57-3.352-1.662-6.745-.021-3.284 1.296-6.1 1.68-6.686.345.587 1.48 3.04 1.615 6.39.092 3.28-.997 5.863-1.633 7.041m4.816-25.214C31.88 5.164 28.744.726 28.313 0c-.683 1.02-3.186 4.938-4.455 9.29-1.388 4.85-1.592 9.153-1.113 13.392.475 4.235 2.272 8.585 2.272 8.585.955 2.285 2.385 4.73 3.315 5.93 1.364-1.765 4.502-7.038 5.48-13.927.543-3.828.566-7.183-.683-12.644" fill="#FEFEFE"/><g transform="translate(0 17.684)"><mask id="b" fill="#fff"><use xlink:href="#a"/></mask><path d="M20.639 20.667v6.462c.008-.01.015-.02.026-.03a5.835 5.835 0 018.203 0 5.735 5.735 0 010 8.148.262.262 0 01-.03.028l-.001.002c-.01.011-.022.02-.032.032a11.605 11.605 0 01-8.166 3.344c-2.967 0-5.932-1.13-8.197-3.372a11.453 11.453 0 010-16.276 11.6 11.6 0 018.197-3.367V.231C9.242.231-.001 9.41-.001 20.72c0 11.318 9.243 20.494 20.64 20.494A20.648 20.648 0 0035.7 34.727v-14.06H20.639z" fill="#FEFEFE" mask="url(#b)"/></g><path d="M119.94 54.046c0 1.953-.895 2.298-3.164 2.298h-2.09v-8.92h2.09v3.442h.346c2.055 0 2.818.477 2.818 2.261v.919zm-17.438-4.937h-1.586v7.243h-1.983v-7.243h-1.698v-1.692h5.267v1.692zm-16.073 4.055c0 1.81-.928 2.298-2.985 2.298v.882h-2.03v-.882c-2.063 0-2.998-.488-2.998-2.298v-2.787c0-1.82.896-2.284 2.997-2.284v-.669h2.031v.669c2.09 0 2.985.463 2.985 2.284v2.787zm-18.943-4.055h-2.857v1.755h2.557v1.693H64.63v2.102h2.857v1.693H62.47v-8.935h5.016v1.692zM50.16 56.344h-2.09V52.44h-1.076v3.904h-2.09v-8.92h2.09v3.442h1.076v-3.442h2.089v8.92zm-8.95 2.553h82.425V45.199H41.21v13.698zm39.238-8.579v2.859c0 .522.167.642.632.642h.333v-4.156h-.333c-.465 0-.632.133-.632.655zm36.791 2.122h-.463v2.332h.463c.469 0 .612-.12.612-.63v-1.074c0-.511-.143-.628-.612-.628zm-33.472-2.777h-.323v4.156h.323c.465 0 .633-.13.633-.655v-2.87c0-.526-.168-.631-.633-.631z" fill="#FEFEFE"/></g></svg>