<?xml version="1.0" encoding="UTF-8"?>
<svg width="32px" height="32px" viewBox="0 0 32 32" version="1.1" xmlns="http://www.w3.org/2000/svg" xmlns:xlink="http://www.w3.org/1999/xlink">
    <title>Group 4</title>
    <g id="Page-1" stroke="none" stroke-width="1" fill="none" fill-rule="evenodd">
        <g id="gazprom__part1" transform="translate(-665.000000, -6361.000000)">
            <g id="Group-6-Copy" transform="translate(664.000000, 6362.000000)">
                <g id="Group-4" transform="translate(2.000000, 0.000000)">
                    <circle id="Oval" stroke="#FFFFFF" stroke-width="0.5" cx="15" cy="15" r="15.25"></circle>
                    <g id="up-arrow" transform="translate(15.000000, 14.500000) rotate(-180.000000) translate(-15.000000, -14.500000) translate(9.000000, 7.000000)" fill="#FFFFFF" fill-rule="nonzero">
                        <path d="M6.21966502,0.091875 C6.09670936,-0.0303222656 5.89708374,-0.0305566406 5.77380296,0.0913183594 C5.77362562,0.0914941406 5.77341872,0.0916992187 5.77324138,0.091875 L0.098364532,5.716875 C-0.0226108374,5.84100586 -0.0191231527,6.03884766 0.106108374,6.15875977 C0.228295567,6.27571289 0.421980296,6.27571289 0.544137931,6.15875977 L5.68117241,1.066875 L5.68117241,14.6874902 C5.68117241,14.8600781 5.82233498,15 5.9964532,15 C6.17057143,15 6.31173399,14.8600781 6.31173399,14.6874902 L6.31173399,1.066875 L11.4481182,6.15811523 C11.5690936,6.28224609 11.7686601,6.28570313 11.8939212,6.16579102 C12.0191527,6.04587891 12.0226108,5.84806641 11.901665,5.72390625 C11.8991232,5.72129883 11.8965517,5.71875 11.8939212,5.71623047 L6.21966502,0.091875 Z" id="Path"></path>
                        <path d="M11.67133,6.24999072 C11.5876552,6.25013672 11.5073498,6.21732422 11.4481182,6.15873047 L5.9964532,0.754365234 L0.544788177,6.15875977 C0.41955665,6.27867187 0.219960591,6.27521484 0.0989852217,6.15108398 C-0.0190049261,6.0299707 -0.0190049261,5.83798828 0.0989852217,5.7169043 L5.77386207,0.0919042969 C5.89696552,-0.0300878906 6.09653202,-0.0300878906 6.21966502,0.0919042969 L11.8945419,5.7169043 C12.017468,5.83913086 12.0171724,6.03700195 11.8938325,6.15884766 C11.8347488,6.21720703 11.7547389,6.24999072 11.67133,6.24999072 Z" id="Path"></path>
                        <path d="M5.9964532,15 C5.82233498,15 5.68117241,14.8600781 5.68117241,14.6874902 L5.68117241,0.312509766 C5.68117241,0.139921875 5.82233498,0 5.9964532,0 C6.17057143,0 6.31173399,0.139921875 6.31173399,0.312509766 L6.31173399,14.6875195 C6.31170443,14.8600781 6.17057143,15 5.9964532,15 Z" id="Path"></path>
                    </g>
                </g>
            </g>
        </g>
    </g>
</svg>