<?xml version="1.0" encoding="UTF-8"?>
<svg width="60px" height="60px" viewBox="0 0 60 60" version="1.1" xmlns="http://www.w3.org/2000/svg" xmlns:xlink="http://www.w3.org/1999/xlink">
    <title>logo_tass</title>
    <g id="Page-1" stroke="none" stroke-width="1" fill="none" fill-rule="evenodd">
        <g id="gazprom__part1" transform="translate(-1276.000000, -26.000000)" fill="#FFFFFF">
            <g id="logo" transform="translate(46.000000, 26.000000)">
                <g id="logo_tass" transform="translate(1230.000000, 0.000000)">
                    <path d="M59.8859155,0.239958268 L59.8859155,59.3873761 L0.0253521131,59.3873761 L0.0253521131,0.239958268 L59.8859155,0.239958268 Z M18,37.7777778 L3.75,37.7777778 L3.75,41.0532503 L8.74452986,41.0532503 L8.74452986,51.8518519 L12.3122413,51.8518519 L12.3122413,41.0532503 L16.0520402,41.0532503 L18,37.7777778 Z M44.25,37.7777778 L36.3292696,37.7777778 C33.8556338,37.7777778 32.25,39.3313786 32.25,41.7078284 L32.25,41.7078284 L32.25,47.9407371 C32.25,50.3365531 33.8556338,51.8518519 36.3292696,51.8518519 L36.3292696,51.8518519 L43.400683,51.8518519 L43.400683,48.5768097 L36.3292696,48.5768097 C35.9415564,48.5768097 35.664679,48.352592 35.664679,47.9407371 L35.664679,47.9407371 L35.664679,41.7078284 C35.664679,41.2968342 35.9415564,41.0532503 36.3292696,41.0532503 L36.3292696,41.0532503 L42.3844752,41.0532503 L44.25,37.7777778 Z M26.0265027,37.7777778 L19.7788158,37.7777778 L17.9540642,41.0532503 L26.0265027,41.0532503 C26.4240186,41.0532503 26.659122,41.2968342 26.659122,41.7082587 L26.659122,43.2054823 L21.4216322,43.2054823 C19.0199218,43.2054823 17.25,45.0396781 17.25,47.5284519 C17.25,50.0180865 19.0199218,51.8518519 21.4216322,51.8518519 L30,51.8518519 L30,41.7082587 C30,39.3313786 28.4282131,37.7777778 26.0265027,37.7777778 Z M56.25,37.7777778 L48.3291252,37.7777778 C45.8551523,37.7777778 44.25,39.3313786 44.25,41.7078284 L44.25,41.7078284 L44.25,47.9407371 C44.25,50.3365531 45.8551523,51.8518519 48.3291252,51.8518519 L48.3291252,51.8518519 L55.3998638,51.8518519 L55.3998638,48.5768097 L48.3291252,48.5768097 C47.9418504,48.5768097 47.6641336,48.352592 47.6641336,47.9407371 L47.6641336,47.9407371 L47.6641336,41.7078284 C47.6641336,41.2968342 47.9418504,41.0532503 48.3291252,41.0532503 L48.3291252,41.0532503 L54.3845412,41.0532503 L56.25,37.7777778 Z M26.659122,46.186158 L26.659122,48.6783747 L21.8324401,48.6783747 C21.1433295,48.6783747 20.6407232,48.156778 20.6407232,47.4419495 C20.6407232,46.7081851 21.1433295,46.186158 21.8324401,46.186158 L26.659122,46.186158 Z" id="Combined-Shape"></path>
                </g>
            </g>
        </g>
    </g>
</svg>