<svg width="60" height="60" xmlns="http://www.w3.org/2000/svg"><path d="M59.886.24v59.147H.026V.24h59.86zM18 37.778H3.75v3.275h4.995v10.799h3.567V41.053h3.74L18 37.778zm26.25 0h-7.92c-2.474 0-4.08 1.553-4.08 3.93v6.233c0 2.396 1.606 3.91 4.08 3.91h7.07v-3.274h-7.07c-.388 0-.665-.224-.665-.636v-6.233c0-.411.277-.655.664-.655h6.055l1.866-3.275zm-18.223 0h-6.248l-1.825 3.275h8.073c.397 0 .632.244.632.655v1.497h-5.237c-2.402 0-4.172 1.835-4.172 4.323 0 2.49 1.77 4.324 4.172 4.324H30V41.708c0-2.377-1.572-3.93-3.973-3.93zm30.223 0h-7.92c-2.475 0-4.08 1.553-4.08 3.93v6.233c0 2.396 1.605 3.91 4.08 3.91h7.07v-3.274h-7.07c-.388 0-.666-.224-.666-.636v-6.233c0-.411.278-.655.665-.655h6.056l1.865-3.275zm-29.59 8.408v2.492h-4.828c-.689 0-1.191-.521-1.191-1.236 0-.734.502-1.256 1.191-1.256h4.827z" fill="#FFF" fill-rule="evenodd"/></svg>